<?xml version="1.0" encoding="UTF-8"?>
<svg width="16px" height="34px" viewBox="0 0 16 34" version="1.1" xmlns="http://www.w3.org/2000/svg" xmlns:xlink="http://www.w3.org/1999/xlink">
    <!-- Generator: Sketch 49 (51002) - http://www.bohemiancoding.com/sketch -->
    <title>adult</title>
    <desc>Created with Sketch.</desc>
    <defs></defs>
    <g id="Page-1" stroke="none" stroke-width="1" fill="none" fill-rule="evenodd">
        <g id="adult" fill="#B8B8B8" fill-rule="nonzero">
            <circle id="Oval" cx="8" cy="3" r="3"></circle>
            <path d="M15.9687438,19.1313721 L15.824607,18.4675772 C15.8191971,18.4237025 15.8191971,18.3798277 15.8099229,18.3351965 L13.7375216,8.79167892 C13.688832,8.56738811 13.5825649,8.37184282 13.4438381,8.20579954 C13.4245168,8.17932339 13.3993991,8.15322547 13.3750543,8.12712755 C13.3568923,8.10859424 13.340276,8.08816978 13.3205683,8.07077117 C13.2726515,8.02651818 13.2162333,7.98339987 13.1536324,7.94103803 C13.1408803,7.93233873 13.129674,7.92174827 13.1165355,7.91380542 C12.2787645,7.37709603 10.3037425,7 8.00025872,7 C5.24620249,7 2.96744991,7.53935701 2.53388024,8.24551376 C2.41215613,8.40285774 2.31902753,8.58554318 2.27458857,8.79167892 L0.202187336,18.3351965 C0.200641633,18.3416264 0.201414484,18.3472999 0.200255207,18.3533515 L0.0313871597,19.1313721 C-0.131684501,19.8806472 0.356757631,20.6174406 1.12303987,20.7766758 C1.88816283,20.9359109 2.64053374,20.457449 2.8036054,19.7085522 L3.99263739,14.2325278 L3.99263739,20.452532 L3.99263739,21.7547804 L3.99263739,22.5687329 L3.99263739,30.2086153 L3.99263739,32.3251944 C3.99263739,33.2480773 4.76007891,33.9996218 5.70373056,33.9996218 C6.64622293,33.9996218 7.4128916,33.2484556 7.4128916,32.3251944 L7.4128916,30.2086153 L7.4128916,22.5691112 L7.4128916,21.7551586 L8.53739049,21.7551586 L8.53739049,22.5691112 L8.53739049,30.2089935 L8.53739049,32.3255726 C8.53739049,33.2484556 9.30483201,34 10.2484837,34 C11.190976,34 11.9580311,33.2488338 11.9580311,32.3255726 L11.9580311,30.2089935 L11.9580311,22.5691112 L11.9580311,21.7551586 L11.9580311,20.4529103 L11.9580311,14.0044547 L13.1965256,19.7085522 C13.3595973,20.457449 14.1115818,20.9359109 14.8770911,20.7766758 C15.642987,20.6174406 16.1314291,19.8810254 15.9687438,19.1313721 Z" id="Shape"></path>
        </g>
    </g>
</svg>