<?xml version="1.0" encoding="UTF-8"?>
<svg width="22px" height="32px" viewBox="0 0 22 32" version="1.1" xmlns="http://www.w3.org/2000/svg" xmlns:xlink="http://www.w3.org/1999/xlink">
    <!-- Generator: Sketch 49 (51002) - http://www.bohemiancoding.com/sketch -->
    <title>baby</title>
    <desc>Created with Sketch.</desc>
    <defs></defs>
    <g id="Page-1" stroke="none" stroke-width="1" fill="none" fill-rule="evenodd">
        <g id="baby" transform="translate(0.492270, 0.378906)" fill="#B8B8B8" fill-rule="nonzero">
            <path d="M10.492096,8.39342699 C12.9209787,8.39104934 14.891564,6.51210831 14.891564,4.19657059 C14.891564,1.87419711 12.9212902,-0.00504112272 10.492096,1.13918948e-05 C8.06009768,-0.00533832946 6.09013546,1.87419711 6.09200479,4.19657059 C6.09013546,6.51210831 8.06009768,8.39104934 10.492096,8.39342699 Z" id="Shape"></path>
            <path d="M10.4922069,17.3931894 L6.02548215,17.3931894 L6.02548215,14.1104525 L2.62464986,17.5989096 C1.08383417,19.1637768 -1.00200963,17.1602014 0.54357915,15.5886688 L6.17732633,9.84940846 C6.63733364,9.39252177 7.13791229,9.09924172 7.93710788,9.09287924 L10.4922069,9.09287924 L12.9959951,9.09287924 C13.7853461,9.09924172 14.3211264,9.38373549 14.7891883,9.84940846 L20.4909521,15.6571412 C21.9577848,17.140508 19.8155588,19.1634738 18.4098814,17.6501124 L14.9076208,14.0934859 L14.9076208,17.3928864 L10.4922069,17.3928864 L10.4922069,17.3931894 Z" id="Shape"></path>
            <path d="M15.1114865,19.584663 L12.0305139,23.22731 L14.3022063,25.8944101 L11.9838616,28.6364525 C10.6114608,30.2511171 12.4978601,32.5632961 13.9127969,30.8999677 L17.570337,26.3920785 C18.3626028,25.4385926 18.5796732,23.6863717 17.7421272,22.6939548 C17.73362,22.6868174 15.1114865,19.584663 15.1114865,19.584663 Z" id="Shape"></path>
            <path d="M5.18537026,19.584663 L8.26538951,23.22731 L6.01043909,25.8944101 L8.32820226,28.6364525 C9.69060814,30.2511171 7.80540266,32.5632961 6.39856156,30.8999677 L2.72716984,26.3920785 C1.94351902,25.4385926 1.72628016,23.6863717 2.57192085,22.6939548 C2.57192085,22.6868174 5.18537026,19.584663 5.18537026,19.584663 Z" id="Shape"></path>
        </g>
    </g>
</svg>