<?xml version="1.0" encoding="UTF-8"?>
<svg width="11px" height="11px" viewBox="0 0 11 11" version="1.1" xmlns="http://www.w3.org/2000/svg" xmlns:xlink="http://www.w3.org/1999/xlink">
    <!-- Generator: Sketch 48.2 (47327) - http://www.bohemiancoding.com/sketch -->
    <title>Shape</title>
    <desc>Created with Sketch.</desc>
    <defs></defs>
    <g id="상태아이콘_예약불가" stroke="none" stroke-width="1" fill="none" fill-rule="evenodd" transform="translate(-5.000000, -5.000000)">
        <path d="M10.25,5 C7.352,5 5,7.352 5,10.25 C5,13.148 7.352,15.5 10.25,15.5 C13.148,15.5 15.5,13.148 15.5,10.25 C15.5,7.352 13.148,5 10.25,5 Z M10.25,14.45 C7.9295,14.45 6.05,12.5705 6.05,10.25 C6.05,9.27875 6.38075,8.38625 6.93725,7.6775 L12.8225,13.56275 C12.11375,14.11925 11.22125,14.45 10.25,14.45 Z M13.56275,12.8225 L7.6775,6.93725 C8.38625,6.38075 9.27875,6.05 10.25,6.05 C12.5705,6.05 14.45,7.9295 14.45,10.25 C14.45,11.22125 14.11925,12.11375 13.56275,12.8225 Z" id="Shape" fill="#FFFFFF" fill-rule="nonzero"></path>
    </g>
</svg>