<?xml version="1.0" encoding="UTF-8"?>
<svg width="34px" height="30px" viewBox="0 0 34 30" version="1.1" xmlns="http://www.w3.org/2000/svg" xmlns:xlink="http://www.w3.org/1999/xlink">
    <!-- Generator: Sketch 50 (54983) - http://www.bohemiancoding.com/sketch -->
    <title>cart</title>
    <desc>Created with Sketch.</desc>
    <defs></defs>
    <g id="Pages" stroke="none" stroke-width="1" fill="none" fill-rule="evenodd">
        <g id="예약하기_M" transform="translate(-240.000000, -24.000000)" stroke="#4F4F4F">
            <g id="TOP">
                <g id="cart" transform="translate(240.000000, 24.000000)">
                    <g id="Page-1">
                        <polyline id="Stroke-1" stroke-width="1.5" stroke-linecap="round" stroke-linejoin="round" points="11.058419 19.3554056 11.058419 19.3554056 7.37994286 5.64162778 6.18832381 1.20785 1.21460952 1.20785"></polyline>
                        <polyline id="Stroke-3" stroke-width="1.5" stroke-linecap="round" stroke-linejoin="round" points="11.058419 19.3554056 28.7756571 17.6025167 32.4039429 5.64162778 7.37994286 5.64162778"></polyline>
                        <path d="M11.058419,19.3554056 C9.76318095,19.6131833 8.93422857,22.4632389 9.14146667,23.7521278 C9.14146667,25.0829056 10.3330857,25.6580722 11.4728952,25.6580722" id="Stroke-5" stroke-width="1.5" stroke-linecap="round" stroke-linejoin="round"></path>
                        <path d="M21.5759143,25.6582333 L17.7695333,25.6582333" id="Stroke-7" stroke-width="1.5" stroke-linecap="round" stroke-linejoin="round"></path>
                        <path d="M28.7763048,25.6582333 L26.8593524,25.6582333" id="Stroke-9" stroke-width="1.5" stroke-linecap="round" stroke-linejoin="round"></path>
                        <path d="M11.2656571,25.6582333 L12.1577524,25.6582333" id="Stroke-11" stroke-width="1.5" stroke-linecap="round" stroke-linejoin="round"></path>
                        <path d="M15.0009619,23.8534667 C16.3172476,23.8534667 17.3842,24.9151889 17.3842,26.2266333 C17.3842,27.5348556 16.3172476,28.5965778 15.0009619,28.5965778 C13.6846762,28.5965778 12.6177238,27.5348556 12.6177238,26.2266333 C12.6177238,24.9151889 13.6846762,23.8534667 15.0009619,23.8534667 Z" id="Stroke-13" stroke-width="1.2"></path>
                        <path d="M24.2180381,23.8534667 C25.5327048,23.8534667 26.6012762,24.9151889 26.6012762,26.2266333 C26.6012762,27.5348556 25.5327048,28.5965778 24.2180381,28.5965778 C22.9017524,28.5965778 21.833181,27.5348556 21.833181,26.2266333 C21.833181,24.9151889 22.9017524,23.8534667 24.2180381,23.8534667 Z" id="Stroke-15" stroke-width="1.2"></path>
                    </g>
                </g>
            </g>
        </g>
    </g>
</svg>