<?xml version="1.0" encoding="UTF-8"?>
<svg width="24px" height="33px" viewBox="0 0 24 33" version="1.1" xmlns="http://www.w3.org/2000/svg" xmlns:xlink="http://www.w3.org/1999/xlink">
    <!-- Generator: Sketch 49 (51002) - http://www.bohemiancoding.com/sketch -->
    <title>child</title>
    <desc>Created with Sketch.</desc>
    <defs></defs>
    <g id="Page-1" stroke="none" stroke-width="1" fill="none" fill-rule="evenodd">
        <g id="child" transform="translate(0.054971, 0.000000)" fill="#B8B8B8" fill-rule="nonzero">
            <circle id="Oval" cx="11.5" cy="3.65909091" r="3.65909091"></circle>
            <path d="M22.3823529,11.890303 L16.9388327,8.68424242 C16.6089224,8.52393939 16.2790121,8.36363636 15.9491018,8.36363636 L7.04152329,8.36363636 C6.71161297,8.36363636 6.38170266,8.52393939 6.2167475,8.52393939 L0.773227301,11.73 C-0.0515484867,12.3712121 -0.216503644,13.3330303 0.278361828,14.1345455 C0.773227301,14.9360606 1.76295825,15.0963636 2.58773403,14.4551515 L6.54665781,12.2109091 L6.54665781,22.7909091 L6.54665781,30.8060606 C6.54665781,31.7678788 7.20647844,32.4090909 8.19620939,32.4090909 C9.18594033,32.4090909 9.84576096,31.7678788 9.84576096,30.8060606 L9.84576096,22.7909091 L13.1448641,22.7909091 L13.1448641,30.8060606 C13.1448641,31.7678788 13.8046847,32.4090909 14.7944157,32.4090909 C15.7841466,32.4090909 16.4439673,31.7678788 16.4439673,30.8060606 L16.4439673,22.7909091 L16.4439673,12.2109091 L20.402891,14.6154545 C21.2276668,15.0963636 22.2173978,14.9360606 22.7122632,14.2948485 C23.2071287,13.3330303 23.0421736,12.3712121 22.3823529,11.890303 Z" id="Shape"></path>
        </g>
    </g>
</svg>