<?xml version="1.0" encoding="UTF-8"?>
<svg width="15px" height="16px" viewBox="0 0 15 16" version="1.1" xmlns="http://www.w3.org/2000/svg" xmlns:xlink="http://www.w3.org/1999/xlink">
    <!-- Generator: Sketch 48.2 (47327) - http://www.bohemiancoding.com/sketch -->
    <title>calendar</title>
    <desc>Created with Sketch.</desc>
    <defs></defs>
    <g id="요금설정_전체시즌" stroke="none" stroke-width="1" fill="none" fill-rule="evenodd" transform="translate(-752.000000, -397.000000)">
        <g id="BODY" transform="translate(440.000000, 100.000000)" fill="#929292">
            <g id="기간" transform="translate(70.000000, 137.000000)">
                <g id="기간추가" transform="translate(138.000000, 1.000000)">
                    <g id="기간설정" transform="translate(0.000000, 150.000000)">
                        <g id="calendar" transform="translate(104.000000, 9.229560)">
                            <path d="M14.1659671,4.58447736 L0.833292183,4.58447736 L0.833292183,3.33416873 C0.833292183,2.64457316 1.39400523,2.08386011 2.08360081,2.08386011 L3.33390944,2.08386011 L3.33390944,2.91715229 L4.16646092,2.91715229 L4.16646092,2.08460081 L10.8327984,2.08460081 L10.8327984,2.91789299 L11.6660906,2.91789299 L11.6660906,2.08460081 L12.9163992,2.08460081 C13.6052541,2.08460081 14.1659671,2.64457316 14.1659671,3.33416873 L14.1659671,4.58447736 Z M14.1659671,12.9173992 C14.1659671,13.6062541 13.6052541,14.1669671 12.9163992,14.1669671 L2.08360081,14.1669671 C1.39400523,14.1669671 0.833292183,13.6062541 0.833292183,12.9173992 L0.833292183,5.41776954 L14.1659671,5.41776954 L14.1659671,12.9173992 Z M11.6660906,1.25130863 L11.6660906,0.001 L10.8327984,0.001 L10.8327984,1.25130863 L4.16646092,1.25130863 L4.16646092,0.001 L3.33316873,0.001 L3.33316873,1.25130863 L2.08360081,1.25130863 C0.934768653,1.25130863 0,2.18607728 0,3.33490944 L0,12.9181399 C0,14.0669721 0.934768653,15.001 2.08360081,15.001 L12.9163992,15.001 C14.0652313,15.001 15,14.0669721 15,12.9181399 L15,5.41776954 L15,4.58447736 L15,3.33416873 C14.9992593,2.18533658 14.0644906,1.25130863 12.9163992,1.25130863 L11.6660906,1.25130863 Z" id="Page-1"></path>
                        </g>
                    </g>
                </g>
            </g>
        </g>
    </g>
</svg>